<svg width="30" height="30" viewBox="0 0 30 30" fill="none" xmlns="http://www.w3.org/2000/svg">
<path d="M15 30C23.2843 30 30 23.2843 30 15C30 6.71573 23.2843 0 15 0C6.71573 0 0 6.71573 0 15C0 23.2843 6.71573 30 15 30Z" fill="white"/>
<path fill-rule="evenodd" clip-rule="evenodd" d="M12.4938 15.0749V24.2768C12.4938 24.4265 12.606 24.5013 12.7182 24.5013H16.1222C16.2718 24.5013 16.3466 24.3891 16.3466 24.2768V14.9252H18.8155C18.9277 14.9252 19.0399 14.813 19.0399 14.7008L19.2643 11.8953C19.2643 11.7457 19.1521 11.6334 19.0399 11.6334H16.3466V9.65091C16.3466 9.16462 16.7207 8.79056 17.207 8.79056H19.1147C19.2643 8.79056 19.3392 8.67834 19.3392 8.56612V5.76063C19.3392 5.61101 19.2269 5.53619 19.1147 5.53619H15.8978C13.99 5.53619 12.4564 7.06986 12.4564 8.97759V11.7083H10.7357C10.586 11.7083 10.5112 11.8205 10.5112 11.9327V14.7382C10.5112 14.8878 10.6234 14.9626 10.7357 14.9626H12.4564V15.0749H12.4938Z" fill="black"/>
</svg>
