<svg width="35" height="35" viewBox="0 0 35 35" fill="none" xmlns="http://www.w3.org/2000/svg">
<path d="M17.5 35C27.165 35 35 27.165 35 17.5C35 7.83502 27.165 0 17.5 0C7.83501 0 0 7.83502 0 17.5C0 27.165 7.83501 35 17.5 35Z" fill="white"/>
<path fill-rule="evenodd" clip-rule="evenodd" d="M9 10H25C26.1 10 27 10.9 27 12V24C27 25.1 26.1 26 25 26H9C7.9 26 7 25.1 7 24L7.01 12C7.01 10.9 7.9 10 9 10ZM17.53 18.67L24.6 14.25C24.85 14.09 25 13.82 25 13.53C25 12.86 24.27 12.46 23.7 12.81L17 17L10.3 12.81C9.73 12.46 9 12.86 9 13.53C9 13.82 9.15 14.09 9.4 14.25L16.47 18.67C16.79 18.87 17.21 18.87 17.53 18.67Z" fill="#4E63BD"/>
</svg>
