<svg width="35" height="35" viewBox="0 0 35 35" fill="none" xmlns="http://www.w3.org/2000/svg">
<path d="M17.5 35C27.165 35 35 27.165 35 17.5C35 7.83502 27.165 0 17.5 0C7.83501 0 0 7.83502 0 17.5C0 27.165 7.83501 35 17.5 35Z" fill="white"/>
<path d="M23.6969 12.7868C24.444 12.7868 25.0497 12.1811 25.0497 11.4339C25.0497 10.6868 24.444 10.0811 23.6969 10.0811C22.9497 10.0811 22.344 10.6868 22.344 11.4339C22.344 12.1811 22.9497 12.7868 23.6969 12.7868Z" fill="#4E63BD"/>
<path d="M17.6308 11.783C14.4886 11.783 11.9138 14.3578 11.9138 17.4999C11.9138 20.6421 14.4886 23.2169 17.6308 23.2169C20.7729 23.2169 23.3477 20.6421 23.3477 17.4999C23.3477 14.3578 20.8166 11.783 17.6308 11.783ZM17.6308 21.1658C15.6233 21.1658 13.9649 19.5074 13.9649 17.4999C13.9649 15.4924 15.6233 13.8341 17.6308 13.8341C19.6383 13.8341 21.2966 15.4924 21.2966 17.4999C21.2966 19.551 19.6819 21.1658 17.6308 21.1658Z" fill="#4E63BD"/>
<path d="M22.1695 29.1086H12.9176C9.0772 29.1086 5.93506 25.9664 5.93506 22.126V12.8741C5.93506 9.03375 9.0772 5.8916 12.9176 5.8916H22.1695C26.0099 5.8916 29.152 9.03375 29.152 12.8741V22.126C29.152 25.9664 26.0099 29.1086 22.1695 29.1086ZM12.9176 8.11729C10.2991 8.11729 8.1171 10.2557 8.1171 12.9178V22.1697C8.1171 24.7881 10.2555 26.9702 12.9176 26.9702H22.1695C24.7879 26.9702 26.97 24.8318 26.97 22.1697V12.8741C26.97 10.2557 24.8316 8.07365 22.1695 8.07365H12.9176V8.11729Z" fill="#4E63BD"/>
</svg>
