<svg width="30" height="30" viewBox="0 0 30 30" fill="none" xmlns="http://www.w3.org/2000/svg">
<path d="M14.9606 30C6.69291 30 0 23.3071 0 15.0394C0 6.69291 6.69291 0 14.9606 0C23.2283 0 29.9213 6.69291 29.9213 14.9606C30 23.2283 23.2283 30 14.9606 30Z" fill="white"/>
<path d="M11.2598 11.6535H8.18896V21.6535H11.2598V11.6535Z" fill="black"/>
<path d="M9.76378 10.315C10.764 10.315 11.5748 9.50414 11.5748 8.50394C11.5748 7.50374 10.764 6.69292 9.76378 6.69292C8.76358 6.69292 7.95276 7.50374 7.95276 8.50394C7.95276 9.50414 8.76358 10.315 9.76378 10.315Z" fill="black"/>
<path d="M16.2205 16.378C16.2205 14.9606 16.8504 14.0945 18.1102 14.0945C19.2126 14.0945 19.7638 14.8819 19.7638 16.378C19.7638 17.7953 19.7638 21.6535 19.7638 21.6535H22.8346C22.8346 21.6535 22.8346 18.0315 22.8346 15.2756C22.8346 12.5984 21.3386 11.2598 19.2126 11.2598C17.0866 11.2598 16.2205 12.9134 16.2205 12.9134V11.5748H13.2283V21.5748H16.2205C16.2205 21.6535 16.2205 17.9528 16.2205 16.378Z" fill="black"/>
</svg>
