<svg width="65" height="59" viewBox="0 0 65 59" fill="none" xmlns="http://www.w3.org/2000/svg">
<g clip-path="url(#clip0)" filter="url(#filter0_d)">
<path d="M32.5 42.7968C27.8064 42.7968 23.3928 40.9945 20.0724 37.7329C16.752 34.4645 14.9278 30.1201 14.9278 25.5C14.9278 20.8799 16.7588 16.5355 20.0724 13.2671C23.3928 9.99875 27.8064 8.20316 32.5 8.20316C37.1937 8.20316 41.6073 10.0055 44.9277 13.2671C48.2481 16.5288 50.0723 20.8799 50.0723 25.5C50.0723 30.1201 48.2481 34.4645 44.9277 37.7329C41.6073 41.0012 37.1937 42.7968 32.5 42.7968ZM32.5 8.87566C27.9908 8.87566 23.7481 10.604 20.5575 13.7446C17.3669 16.8852 15.611 21.0615 15.611 25.5C15.611 29.9385 17.3669 34.1148 20.5575 37.2554C23.7481 40.396 27.9908 42.1243 32.5 42.1243C37.0092 42.1243 41.252 40.396 44.4426 37.2554C47.6332 34.1148 49.389 29.9385 49.389 25.5C49.389 21.0615 47.6332 16.8852 44.4426 13.7446C41.252 10.604 37.0092 8.87566 32.5 8.87566Z" fill="white"/>
<path d="M23.4133 45.043C20.7351 43.8325 18.3712 42.1445 16.3967 40.0261C14.4905 37.975 13.0216 35.6078 12.031 32.9917C11.0403 30.3757 10.5826 27.6386 10.6646 24.8611C10.7465 21.9828 11.4161 19.1852 12.639 16.549C13.862 13.9127 15.5837 11.5926 17.7426 9.64904C19.8264 7.77275 22.2313 6.32687 24.889 5.35174C27.5467 4.3766 30.3206 3.92602 33.1423 4.00672C36.0664 4.08743 38.9086 4.74648 41.5868 5.95027C44.2649 7.15405 46.6289 8.84876 48.6034 10.9672C50.5095 13.0183 51.9784 15.3855 52.9691 18.0016C53.9597 20.6176 54.4175 23.3547 54.3355 26.1322C54.2535 29.0105 53.584 31.8081 52.361 34.4443C51.1312 37.0805 49.4164 39.4074 47.2643 41.3509C45.1805 43.2272 42.7755 44.6731 40.1178 45.6483C37.4602 46.6234 34.6795 47.074 31.8578 46.9933C28.9337 46.9058 26.0915 46.2535 23.4133 45.043ZM40.2613 8.80169C35.7316 6.75727 30.6622 6.5757 25.9958 8.29058C21.3295 10.0055 17.6128 13.4016 15.5359 17.8603C13.4589 22.319 13.2744 27.309 15.0166 31.9022C16.7588 36.4955 20.2022 40.1539 24.7387 42.1983C29.2753 44.2427 34.3379 44.4243 39.0042 42.7094C43.6774 41.0012 47.3872 37.5984 49.4642 33.1397C51.5412 28.6809 51.7256 23.691 49.9834 19.0977C48.2481 14.4978 44.791 10.8461 40.2613 8.80169Z" fill="white"/>
<path d="M9.76306 24.1333L9.76303 24.1333C8.58954 23.6046 8.08242 22.2487 8.6155 21.1023L8.61557 21.1022L13.5005 10.5844C13.5005 10.5843 13.5005 10.5842 13.5005 10.5842C14.0351 9.43492 15.4172 8.92517 16.5945 9.45556C16.5945 9.45556 16.5945 9.45556 16.5945 9.45556L55.237 26.8667L55.4013 26.502L55.237 26.8667C56.4105 27.3954 56.9176 28.7512 56.3845 29.8976C56.3845 29.8976 56.3845 29.8976 56.3845 29.8976L51.4927 40.4156L51.492 40.4171C50.9646 41.5638 49.5772 42.0753 48.3987 41.5444C48.3987 41.5444 48.3987 41.5444 48.3987 41.5444L9.76306 24.1333Z" fill="white" stroke="#4E63BD" stroke-width="0.8"/>
<path d="M25.2716 19.6627C25.5244 19.1247 25.6747 18.6943 25.4014 18.0419C25.176 17.4972 24.8344 17.2551 24.3629 17.0399L21.0494 15.5469C21.0289 15.5402 21.0084 15.5335 20.981 15.5335C20.9195 15.5335 20.8649 15.5671 20.8376 15.6276L17.5171 22.7764C17.4215 22.9781 17.401 23.153 17.4557 23.3076C17.5103 23.469 17.647 23.6035 17.8656 23.7044C17.9954 23.7649 18.1115 23.7918 18.2277 23.7918C18.4805 23.7918 18.6718 23.6439 18.8084 23.3614L19.8537 21.1085L21.8897 22.0299C22.2176 22.1778 22.5456 22.3123 22.9077 22.3123C23.1263 22.3123 23.3449 22.2653 23.5772 22.1644C24.199 21.9021 24.4244 21.5053 24.6499 21.0144L25.2716 19.6627ZM22.9419 20.8933C22.8462 20.8933 22.7027 20.853 22.5114 20.7656L20.4413 19.8308L21.6028 17.3291L23.6729 18.2639C24.1716 18.4858 24.2126 18.5934 23.9803 19.0843L23.3381 20.4562C23.1741 20.8194 23.0717 20.8933 22.9419 20.8933Z" fill="#4E63BD"/>
<path d="M30.6963 19.8913C30.6007 19.851 30.505 19.8241 30.4162 19.8241C30.1429 19.8241 29.9448 20.0056 29.7672 20.2007L24.7251 25.964C24.6226 26.0851 24.5816 26.2398 24.6226 26.4146C24.6704 26.6298 24.8275 26.8248 25.0325 26.919C25.1282 26.9593 25.2238 26.9795 25.3195 26.9795C25.5518 26.9795 25.7909 26.8517 25.9822 26.6298L26.8294 25.7085L28.7355 26.5693L28.5716 27.7933C28.5101 28.2237 28.6535 28.5465 28.9746 28.6944C29.0635 28.7348 29.1659 28.7549 29.2684 28.7549C29.5964 28.7549 29.8628 28.5599 29.9038 28.2976L31.0721 20.7857C31.1063 20.6109 31.1883 20.1132 30.6963 19.8913ZM29.3163 22.8503L28.961 25.1436L27.779 24.6123L29.3163 22.8503Z" fill="#4E63BD"/>
<path d="M39.8308 25.7018C39.9948 25.3453 39.9812 24.841 39.7967 24.424C39.6191 24.0474 39.3389 23.7851 38.8812 23.5767L36.7632 22.6284C36.4968 22.5074 36.2645 22.4065 35.9639 22.4065C35.8955 22.4065 35.8272 22.4132 35.7589 22.4199C35.2602 22.4939 34.8776 22.7764 34.6726 23.2135C34.4813 23.617 34.536 23.9196 34.6179 24.2693L36.0254 30.1336C36.0322 30.1538 36.039 30.1874 36.0459 30.221C36.0527 30.2546 36.0732 30.3219 36.08 30.369C36.039 30.3555 35.9844 30.3286 35.957 30.3152C35.9434 30.3084 35.9297 30.3017 35.916 30.295L33.7503 29.3198C33.6614 29.2795 33.5521 29.2257 33.518 29.1719C33.5111 29.1584 33.4838 29.1248 33.5453 28.997C33.7161 28.6272 33.5795 28.2371 33.231 28.0757C33.1285 28.0286 33.0261 28.0085 32.9167 28.0085C32.623 28.0085 32.3565 28.1968 32.213 28.5061C32.0422 28.876 32.0627 29.3669 32.2609 29.7637C32.4453 30.1336 32.7323 30.3959 33.1969 30.6043L35.39 31.5929C35.6496 31.7072 35.9024 31.7678 36.1552 31.7678C36.7017 31.7678 37.139 31.4853 37.3781 30.9742C37.5558 30.5909 37.5011 30.2479 37.4191 29.8982L36.0049 24.0272C36.0049 24.0071 35.998 23.9869 35.9912 23.96C35.9844 23.9196 35.9639 23.8457 35.9639 23.8053C36.0049 23.812 36.0663 23.8457 36.1073 23.8658C36.1278 23.8726 36.1415 23.8793 36.1552 23.886L38.2663 24.841C38.3619 24.888 38.4849 24.9418 38.5191 25.0091C38.5259 25.0225 38.5601 25.0763 38.4849 25.231C38.3141 25.5942 38.4576 25.9506 38.8265 26.1187C38.9358 26.1658 39.0452 26.1927 39.1476 26.1927C39.4414 26.186 39.6874 26.0111 39.8308 25.7018Z" fill="#4E63BD"/>
<path d="M46.9773 27.6588C46.7997 27.2822 46.5195 27.0199 46.0618 26.8114L43.9507 25.8564C43.6842 25.7354 43.4519 25.6345 43.1513 25.6345C43.083 25.6345 43.0215 25.6412 42.9463 25.648C42.4476 25.7219 42.065 26.0044 41.86 26.4415C41.6687 26.845 41.7234 27.1477 41.8054 27.4974L43.2128 33.3616C43.2196 33.3818 43.2265 33.4154 43.2333 33.449C43.2401 33.4827 43.2606 33.5499 43.2675 33.597C43.2265 33.5835 43.1718 33.5566 43.1445 33.5432C43.1308 33.5365 43.1171 33.5297 43.1035 33.523L40.9309 32.5546C40.6507 32.4268 40.6576 32.3865 40.7259 32.2318C40.8011 32.0637 40.8216 31.8821 40.7737 31.714C40.7191 31.5324 40.5893 31.3912 40.4116 31.3105C40.3091 31.2634 40.2067 31.2432 40.0973 31.2432C39.8036 31.2432 39.5371 31.4315 39.3936 31.7409C39.2228 32.1107 39.2433 32.6017 39.4415 32.9985C39.6259 33.3683 39.9129 33.6306 40.3775 33.8391L42.5706 34.8277C42.8302 34.942 43.083 35.0025 43.3358 35.0025C43.8823 35.0025 44.3196 34.7201 44.5587 34.209C44.7364 33.8256 44.6817 33.4827 44.5997 33.133L43.1855 27.262C43.1855 27.2418 43.1786 27.2216 43.1718 27.1947C43.165 27.1611 43.1445 27.0804 43.1445 27.0401C43.1855 27.0468 43.247 27.0804 43.2879 27.1006C43.3084 27.1073 43.3221 27.114 43.3358 27.1208L45.4469 28.0757C45.5425 28.1228 45.6655 28.1766 45.6997 28.2438C45.7065 28.2573 45.7407 28.3111 45.6655 28.4658C45.4947 28.8289 45.6382 29.1853 46.0071 29.3535C46.1164 29.4005 46.2258 29.4274 46.3282 29.4274C46.6084 29.4274 46.8543 29.2526 46.9978 28.9365C47.1754 28.5801 47.1618 28.0757 46.9773 27.6588Z" fill="#4E63BD"/>
</g>
<defs>
<filter id="filter0_d" x="0" y="0" width="65" height="59" filterUnits="userSpaceOnUse" color-interpolation-filters="sRGB">
<feFlood flood-opacity="0" result="BackgroundImageFix"/>
<feColorMatrix in="SourceAlpha" type="matrix" values="0 0 0 0 0 0 0 0 0 0 0 0 0 0 0 0 0 0 127 0"/>
<feOffset dy="4"/>
<feGaussianBlur stdDeviation="4"/>
<feColorMatrix type="matrix" values="0 0 0 0 0 0 0 0 0 0 0 0 0 0 0 0 0 0 0.2 0"/>
<feBlend mode="normal" in2="BackgroundImageFix" result="effect1_dropShadow"/>
<feBlend mode="normal" in="SourceGraphic" in2="effect1_dropShadow" result="shape"/>
</filter>
<clipPath id="clip0">
<rect width="49" height="43" fill="white" transform="translate(8 4)"/>
</clipPath>
</defs>
</svg>
