<svg width="237" height="72" viewBox="0 0 237 72" fill="none" xmlns="http://www.w3.org/2000/svg">
<path d="M147.07 38H137.08V25.4H147.07V27.92H140.32V30.35H145.63V32.87H140.32V35.48H147.07V38ZM147.966 32.96V30.44H155.346V32.96H147.966ZM160.201 35.48H166.771V38H156.961V25.4H160.201V35.48ZM171.545 30.53C171.065 30.53 170.825 30.77 170.825 31.25V32.24H173.885V31.25C173.885 30.77 173.645 30.53 173.165 30.53H171.545ZM176.675 37.82C174.359 38.06 172.259 38.18 170.375 38.18C169.559 38.18 168.905 37.934 168.413 37.442C167.921 36.95 167.675 36.296 167.675 35.48V31.16C167.675 30.26 167.927 29.558 168.431 29.054C168.947 28.538 169.655 28.28 170.555 28.28H174.155C175.055 28.28 175.757 28.538 176.261 29.054C176.777 29.558 177.035 30.26 177.035 31.16V34.49H170.825V35.21C170.825 35.39 170.885 35.54 171.005 35.66C171.125 35.78 171.275 35.84 171.455 35.84C172.643 35.84 174.383 35.75 176.675 35.57V37.82ZM182.428 35.66C183.064 35.66 183.784 35.54 184.588 35.3V34.22H181.978C181.798 34.22 181.648 34.28 181.528 34.4C181.408 34.52 181.348 34.67 181.348 34.85V35.03C181.348 35.21 181.408 35.36 181.528 35.48C181.648 35.6 181.798 35.66 181.978 35.66H182.428ZM179.098 28.64C181.294 28.4 183.274 28.28 185.038 28.28C185.854 28.28 186.508 28.526 187 29.018C187.492 29.51 187.738 30.164 187.738 30.98V38H184.948L184.768 37.1C184.204 37.472 183.622 37.748 183.022 37.928C182.434 38.096 181.936 38.18 181.528 38.18H180.898C180.082 38.18 179.428 37.934 178.936 37.442C178.444 36.95 178.198 36.296 178.198 35.48V34.67C178.198 33.854 178.444 33.2 178.936 32.708C179.428 32.216 180.082 31.97 180.898 31.97H184.588V31.25C184.588 31.07 184.528 30.92 184.408 30.8C184.288 30.68 184.138 30.62 183.958 30.62C183.178 30.62 182.314 30.656 181.366 30.728C180.43 30.8 179.674 30.854 179.098 30.89V28.64ZM194.843 31.07C194.087 31.07 193.307 31.25 192.503 31.61V38H189.353V28.46H192.143L192.323 29.63C193.355 28.73 194.435 28.28 195.563 28.28H196.373V31.07H194.843ZM202.942 30.89C202.306 30.89 201.586 31.01 200.782 31.25V38H197.632V28.46H200.422L200.602 29.36C201.166 28.988 201.742 28.718 202.33 28.55C202.93 28.37 203.434 28.28 203.842 28.28H204.652C205.468 28.28 206.122 28.526 206.614 29.018C207.106 29.51 207.352 30.164 207.352 30.98V38H204.202V31.52C204.202 31.34 204.142 31.19 204.022 31.07C203.902 30.95 203.752 30.89 203.572 30.89H202.942ZM212.93 28.82V38H209.78V31.25H208.43V28.82H212.93ZM209.78 25.22H212.93V27.74H209.78V25.22ZM220.046 30.89C219.41 30.89 218.69 31.01 217.886 31.25V38H214.736V28.46H217.526L217.706 29.36C218.27 28.988 218.846 28.718 219.434 28.55C220.034 28.37 220.538 28.28 220.946 28.28H221.756C222.572 28.28 223.226 28.526 223.718 29.018C224.21 29.51 224.456 30.164 224.456 30.98V38H221.306V31.52C221.306 31.34 221.246 31.19 221.126 31.07C221.006 30.95 220.856 30.89 220.676 30.89H220.046ZM232.284 37.28C231.12 37.52 230.1 37.64 229.224 37.64H228.594C227.778 37.64 227.124 37.394 226.632 36.902C226.14 36.41 225.894 35.756 225.894 34.94V31.34C225.894 30.44 226.146 29.738 226.65 29.234C227.166 28.718 227.874 28.46 228.774 28.46H235.434V38.54C235.434 39.356 235.188 40.01 234.696 40.502C234.204 40.994 233.55 41.24 232.734 41.24C230.85 41.24 228.75 41.12 226.434 40.88V38.54C228.726 38.72 230.466 38.81 231.654 38.81C231.834 38.81 231.984 38.75 232.104 38.63C232.224 38.51 232.284 38.36 232.284 38.18V37.28ZM230.124 35.21C230.88 35.21 231.6 35.15 232.284 35.03V30.89H229.764C229.284 30.89 229.044 31.13 229.044 31.61V34.58C229.044 34.76 229.104 34.91 229.224 35.03C229.344 35.15 229.494 35.21 229.674 35.21H230.124Z" fill="#373737"/>
<path d="M87.33 38H83.82L88.59 25.4H92.19L96.96 38H93.45L92.64 35.75H88.14L87.33 38ZM88.95 33.41H91.83L90.39 29.18L88.95 33.41ZM103.256 25.4H110.456C111.632 25.4 112.496 25.67 113.048 26.21C113.6 26.738 113.876 27.548 113.876 28.64C113.876 29.36 113.72 29.948 113.408 30.404C113.096 30.848 112.712 31.16 112.256 31.34C113.228 31.604 113.888 32.252 114.236 33.284C114.356 33.656 114.416 34.088 114.416 34.58C114.416 35.756 114.14 36.62 113.588 37.172C113.036 37.724 112.172 38 110.996 38H103.256V25.4ZM111.176 34.04C111.176 33.32 110.816 32.96 110.096 32.96H106.496V35.48H110.096C110.816 35.48 111.176 35.12 111.176 34.4V34.04ZM110.636 29C110.636 28.28 110.276 27.92 109.556 27.92H106.496V30.44H109.556C110.276 30.44 110.636 30.08 110.636 29.36V29ZM131.152 37.82C128.476 38.06 126.256 38.18 124.492 38.18C123.316 38.18 122.452 37.904 121.9 37.352C121.348 36.8 121.072 35.936 121.072 34.76V29C121.072 27.74 121.354 26.828 121.918 26.264C122.494 25.688 123.412 25.4 124.672 25.4H131.152V27.92H125.392C124.672 27.92 124.312 28.28 124.312 29V34.76C124.312 35.036 124.39 35.258 124.546 35.426C124.714 35.582 124.924 35.66 125.176 35.66C125.428 35.66 125.704 35.66 126.004 35.66C126.304 35.648 126.616 35.636 126.94 35.624C127.264 35.612 127.588 35.6 127.912 35.588C128.248 35.576 128.674 35.552 129.19 35.516C129.718 35.48 130.372 35.438 131.152 35.39V37.82Z" fill="white"/>
<g filter="url(#filter0_d)">
<path d="M38.8612 52.4396C33.3312 52.4396 28.1314 50.2824 24.2194 46.3784C20.3074 42.4664 18.1582 37.2665 18.1582 31.7366C18.1582 26.2067 20.3154 21.0068 24.2194 17.0949C28.1314 13.1829 33.3312 11.0337 38.8612 11.0337C44.3911 11.0337 49.5909 13.1909 53.5029 17.0949C57.4149 20.9988 59.5641 26.2067 59.5641 31.7366C59.5641 37.2665 57.4149 42.4664 53.5029 46.3784C49.5909 50.2904 44.3911 52.4396 38.8612 52.4396ZM38.8612 11.8386C33.5486 11.8386 28.5499 13.9073 24.7909 17.6664C21.0318 21.4254 18.9631 26.4241 18.9631 31.7366C18.9631 37.0492 21.0318 42.0479 24.7909 45.8069C28.5499 49.566 33.5486 51.6347 38.8612 51.6347C44.1737 51.6347 49.1724 49.566 52.9314 45.8069C56.6905 42.0479 58.7592 37.0492 58.7592 31.7366C58.7592 26.4241 56.6905 21.4254 52.9314 17.6664C49.1724 13.9073 44.1737 11.8386 38.8612 11.8386Z" fill="white"/>
<path d="M28.1551 55.1282C24.9998 53.6793 22.2147 51.6589 19.8884 49.1234C17.6427 46.6683 15.9121 43.8349 14.7449 40.7037C13.5777 37.5725 13.0384 34.2965 13.135 30.9721C13.2316 27.5269 14.0205 24.1784 15.4613 21.0231C16.9021 17.8677 18.9306 15.0907 21.4742 12.7644C23.9292 10.5186 26.7626 8.78804 29.8938 7.62088C33.025 6.45372 36.293 5.91442 39.6174 6.01101C43.0625 6.1076 46.4111 6.89644 49.5664 8.33727C52.7218 9.77811 55.5069 11.8065 57.8331 14.3421C60.0789 16.7971 61.8095 19.6305 62.9767 22.7617C64.1438 25.8929 64.6831 29.169 64.5865 32.4934C64.4899 35.9385 63.7011 39.2871 62.2603 42.4424C60.8114 45.5977 58.791 48.3828 56.2554 50.7091C53.8004 52.9549 50.967 54.6855 47.8358 55.8526C44.7046 57.0198 41.4285 57.5591 38.1041 57.4625C34.659 57.3579 31.3105 56.5771 28.1551 55.1282ZM48.0048 11.7502C42.6681 9.30319 36.6955 9.08586 31.1978 11.1384C25.7001 13.191 21.3212 17.256 18.8742 22.5927C16.4272 27.9294 16.2099 33.902 18.2625 39.3997C20.3151 44.8975 24.3719 49.2763 29.7167 51.7233C35.0615 54.1703 41.0261 54.3876 46.5238 52.3351C52.0295 50.2905 56.4003 46.2175 58.8473 40.8808C61.2943 35.5441 61.5117 29.5715 59.4591 24.0738C57.4146 18.568 53.3416 14.1972 48.0048 11.7502Z" fill="white"/>
<path d="M57.3984 51.3772L11.8793 30.5374C10.2614 29.7969 9.55305 27.8892 10.2936 26.2712L16.0489 13.682C16.7894 12.0641 18.6971 11.3558 20.315 12.0963L65.8422 32.9361C67.4601 33.6766 68.1685 35.5843 67.4279 37.2023L61.6646 49.7915C60.9321 51.4094 59.0164 52.1177 57.3984 51.3772Z" fill="white"/>
<path d="M30.3442 24.7499C30.642 24.106 30.8191 23.5908 30.4971 22.81C30.2315 22.158 29.829 21.8683 29.2736 21.6107L25.3697 19.8237C25.3455 19.8157 25.3214 19.8076 25.2892 19.8076C25.2167 19.8076 25.1523 19.8479 25.1201 19.9203L21.2082 28.4768C21.0955 28.7183 21.0713 28.9275 21.1357 29.1127C21.2001 29.3059 21.3611 29.4668 21.6187 29.5876C21.7716 29.66 21.9084 29.6922 22.0453 29.6922C22.3431 29.6922 22.5685 29.5151 22.7295 29.1771L23.961 26.4805L26.3597 27.5833C26.7461 27.7604 27.1325 27.9214 27.5591 27.9214C27.8167 27.9214 28.0743 27.865 28.3479 27.7443C29.0804 27.4304 29.3461 26.9554 29.6117 26.3678L30.3442 24.7499ZM27.5993 26.223C27.4867 26.223 27.3176 26.1747 27.0922 26.07L24.6533 24.9512L26.0217 21.9568L28.4606 23.0757C29.0482 23.3413 29.0965 23.4701 28.8228 24.0577L28.0662 25.6997C27.873 26.1344 27.7523 26.223 27.5993 26.223Z" fill="#E07730"/>
<path d="M36.7349 25.0234C36.6222 24.9751 36.5096 24.9429 36.4049 24.9429C36.0829 24.9429 35.8495 25.1602 35.6402 25.3936L29.6998 32.2919C29.5791 32.4368 29.5308 32.622 29.5791 32.8312C29.6354 33.0888 29.8205 33.3223 30.062 33.4349C30.1747 33.4832 30.2874 33.5074 30.4001 33.5074C30.6738 33.5074 30.9555 33.3544 31.1809 33.0888L32.179 31.9861L34.4248 33.0164L34.2316 34.4814C34.1591 34.9965 34.3282 35.3829 34.7065 35.56C34.8111 35.6083 34.9319 35.6324 35.0526 35.6324C35.439 35.6324 35.7529 35.399 35.8012 35.0851L37.1776 26.0939C37.2179 25.8846 37.3145 25.289 36.7349 25.0234ZM35.109 28.5651L34.6904 31.3099L33.2979 30.674L35.109 28.5651Z" fill="#E07730"/>
<path d="M47.497 31.9779C47.6902 31.5513 47.6741 30.9476 47.4568 30.4485C47.2475 29.9977 46.9174 29.6838 46.3781 29.4343L43.8828 28.2993C43.5689 28.1544 43.2952 28.0337 42.9411 28.0337C42.8606 28.0337 42.7801 28.0417 42.6996 28.0498C42.112 28.1383 41.6612 28.4764 41.4197 28.9996C41.1944 29.4826 41.2587 29.8448 41.3553 30.2634L43.0135 37.2824C43.0216 37.3066 43.0296 37.3468 43.0377 37.387C43.0457 37.4273 43.0699 37.5078 43.0779 37.5641C43.0296 37.548 42.9652 37.5158 42.933 37.4997C42.9169 37.4917 42.9008 37.4836 42.8847 37.4756L40.3331 36.3084C40.2284 36.2601 40.0996 36.1957 40.0594 36.1313C40.0513 36.1152 40.0191 36.075 40.0916 35.9221C40.2928 35.4793 40.1318 35.0125 39.7213 34.8193C39.6006 34.763 39.4798 34.7388 39.351 34.7388C39.0049 34.7388 38.691 34.9642 38.522 35.3345C38.3207 35.7772 38.3449 36.3648 38.5783 36.8397C38.7956 37.2824 39.1337 37.5963 39.6811 37.8459L42.2649 39.0291C42.5708 39.166 42.8686 39.2384 43.1664 39.2384C43.8104 39.2384 44.3256 38.9003 44.6073 38.2886C44.8166 37.8298 44.7522 37.4192 44.6556 37.0007L42.9894 29.9736C42.9894 29.9494 42.9813 29.9253 42.9733 29.8931C42.9652 29.8448 42.9411 29.7563 42.9411 29.708C42.9894 29.716 43.0618 29.7563 43.1101 29.7804C43.1342 29.7885 43.1503 29.7965 43.1664 29.8046L45.6537 30.9476C45.7664 31.0039 45.9113 31.0683 45.9515 31.1488C45.9596 31.1649 45.9998 31.2293 45.9113 31.4144C45.71 31.8491 45.8791 32.2757 46.3137 32.4769C46.4425 32.5333 46.5713 32.5655 46.6921 32.5655C47.0382 32.5574 47.328 32.3481 47.497 31.9779Z" fill="#E07730"/>
<path d="M55.9167 34.3203C55.7074 33.8696 55.3774 33.5556 54.8381 33.3061L52.3508 32.1631C52.0369 32.0182 51.7632 31.8975 51.4091 31.8975C51.3286 31.8975 51.2561 31.9055 51.1676 31.9136C50.58 32.0021 50.1292 32.3402 49.8877 32.8634C49.6624 33.3463 49.7268 33.7086 49.8233 34.1271L51.4815 41.1462C51.4896 41.1703 51.4976 41.2106 51.5057 41.2508C51.5137 41.2911 51.5379 41.3716 51.5459 41.4279C51.4976 41.4118 51.4332 41.3796 51.401 41.3635C51.3849 41.3555 51.3688 41.3474 51.3527 41.3394L48.793 40.1803C48.463 40.0273 48.4711 39.979 48.5516 39.7939C48.6401 39.5926 48.6642 39.3753 48.6079 39.1741C48.5435 38.9567 48.3906 38.7877 48.1813 38.6911C48.0605 38.6348 47.9398 38.6106 47.811 38.6106C47.4649 38.6106 47.151 38.836 46.9819 39.2063C46.7807 39.649 46.8048 40.2366 47.0383 40.7115C47.2556 41.1542 47.5937 41.4681 48.141 41.7177L50.7249 42.9009C51.0308 43.0378 51.3286 43.1102 51.6264 43.1102C52.2704 43.1102 52.7855 42.7721 53.0672 42.1604C53.2765 41.7016 53.2121 41.2911 53.1155 40.8725L51.4493 33.8454C51.4493 33.8213 51.4413 33.7971 51.4332 33.7649C51.4252 33.7247 51.401 33.6281 51.401 33.5798C51.4493 33.5878 51.5218 33.6281 51.5701 33.6522C51.5942 33.6603 51.6103 33.6683 51.6264 33.6764L54.1137 34.8194C54.2263 34.8757 54.3712 34.9401 54.4115 35.0206C54.4195 35.0367 54.4598 35.1011 54.3712 35.2862C54.17 35.7209 54.339 36.1475 54.7737 36.3488C54.9025 36.4051 55.0313 36.4373 55.152 36.4373C55.482 36.4373 55.7718 36.228 55.9409 35.8497C56.1501 35.4231 56.134 34.8194 55.9167 34.3203Z" fill="#E07730"/>
</g>
<defs>
<filter id="filter0_d" x="0" y="0" width="77.7215" height="71.4735" filterUnits="userSpaceOnUse" color-interpolation-filters="sRGB">
<feFlood flood-opacity="0" result="BackgroundImageFix"/>
<feColorMatrix in="SourceAlpha" type="matrix" values="0 0 0 0 0 0 0 0 0 0 0 0 0 0 0 0 0 0 127 0"/>
<feOffset dy="4"/>
<feGaussianBlur stdDeviation="5"/>
<feColorMatrix type="matrix" values="0 0 0 0 0 0 0 0 0 0 0 0 0 0 0 0 0 0 0.2 0"/>
<feBlend mode="normal" in2="BackgroundImageFix" result="effect1_dropShadow"/>
<feBlend mode="normal" in="SourceGraphic" in2="effect1_dropShadow" result="shape"/>
</filter>
</defs>
</svg>
