<svg width="368" height="128" viewBox="0 0 368 128" fill="none" xmlns="http://www.w3.org/2000/svg">
<path d="M11.5576 109H8.9209V103.516H3.7793V109H1.14258V96.2031H3.7793V101.389H8.9209V96.2031H11.5576V109ZM18.0791 109.176C16.6846 109.176 15.5479 108.748 14.6689 107.893C13.7959 107.037 13.3594 105.897 13.3594 104.474V104.228C13.3594 103.272 13.5439 102.42 13.9131 101.67C14.2822 100.914 14.8037 100.334 15.4775 99.9297C16.1572 99.5195 16.9307 99.3145 17.7979 99.3145C19.0986 99.3145 20.1211 99.7246 20.8652 100.545C21.6152 101.365 21.9902 102.528 21.9902 104.034V105.071H15.9346C16.0166 105.692 16.2627 106.19 16.6729 106.565C17.0889 106.94 17.6133 107.128 18.2461 107.128C19.2246 107.128 19.9893 106.773 20.54 106.064L21.7881 107.462C21.4072 108.001 20.8916 108.423 20.2412 108.728C19.5908 109.026 18.8701 109.176 18.0791 109.176ZM17.7891 101.371C17.2852 101.371 16.875 101.541 16.5586 101.881C16.248 102.221 16.0488 102.707 15.9609 103.34H19.4941V103.138C19.4824 102.575 19.3301 102.142 19.0371 101.837C18.7441 101.526 18.3281 101.371 17.7891 101.371ZM25.7783 99.4902L25.8574 100.589C26.5371 99.7393 27.4482 99.3145 28.5908 99.3145C29.5986 99.3145 30.3486 99.6104 30.8408 100.202C31.333 100.794 31.585 101.679 31.5967 102.856V109H29.0566V102.918C29.0566 102.379 28.9395 101.989 28.7051 101.749C28.4707 101.503 28.0811 101.38 27.5361 101.38C26.8213 101.38 26.2852 101.685 25.9277 102.294V109H23.3877V99.4902H25.7783ZM38.874 101.872C38.5283 101.825 38.2236 101.802 37.96 101.802C36.999 101.802 36.3691 102.127 36.0703 102.777V109H33.5303V99.4902H35.9297L36 100.624C36.5098 99.751 37.2158 99.3145 38.1182 99.3145C38.3994 99.3145 38.6631 99.3525 38.9092 99.4287L38.874 101.872ZM43.8135 105.405L45.5713 99.4902H48.2959L44.4727 110.477L44.2617 110.978C43.6934 112.22 42.7559 112.841 41.4492 112.841C41.0801 112.841 40.7051 112.785 40.3242 112.674V110.749L40.7109 110.758C41.1914 110.758 41.5488 110.685 41.7832 110.538C42.0234 110.392 42.2109 110.148 42.3457 109.809L42.6445 109.026L39.3135 99.4902H42.0469L43.8135 105.405ZM60.583 105.643C60.583 105.145 60.4072 104.764 60.0557 104.5C59.7041 104.23 59.0713 103.949 58.1572 103.656C57.2432 103.357 56.5195 103.064 55.9863 102.777C54.5332 101.992 53.8066 100.935 53.8066 99.6045C53.8066 98.9131 54 98.2979 54.3867 97.7588C54.7793 97.2139 55.3389 96.7891 56.0654 96.4844C56.7979 96.1797 57.6182 96.0273 58.5264 96.0273C59.4404 96.0273 60.2549 96.1943 60.9697 96.5283C61.6846 96.8564 62.2383 97.3223 62.6309 97.9258C63.0293 98.5293 63.2285 99.2148 63.2285 99.9824H60.5918C60.5918 99.3965 60.4072 98.9424 60.0381 98.6201C59.6689 98.292 59.1504 98.1279 58.4824 98.1279C57.8379 98.1279 57.3369 98.2656 56.9795 98.541C56.6221 98.8105 56.4434 99.168 56.4434 99.6133C56.4434 100.029 56.6514 100.378 57.0674 100.659C57.4893 100.94 58.1074 101.204 58.9219 101.45C60.4219 101.901 61.5146 102.461 62.2002 103.129C62.8857 103.797 63.2285 104.629 63.2285 105.625C63.2285 106.732 62.8096 107.603 61.9717 108.235C61.1338 108.862 60.0059 109.176 58.5879 109.176C57.6035 109.176 56.707 108.997 55.8984 108.64C55.0898 108.276 54.4717 107.781 54.0439 107.154C53.6221 106.527 53.4111 105.801 53.4111 104.975H56.0566C56.0566 106.387 56.9004 107.093 58.5879 107.093C59.2148 107.093 59.7041 106.967 60.0557 106.715C60.4072 106.457 60.583 106.1 60.583 105.643ZM73.415 104.333C73.415 105.798 73.0811 106.973 72.4131 107.857C71.751 108.736 70.8545 109.176 69.7236 109.176C68.7627 109.176 67.9863 108.842 67.3945 108.174V112.656H64.8545V99.4902H67.21L67.2979 100.422C67.9131 99.6836 68.7158 99.3145 69.7061 99.3145C70.8779 99.3145 71.7891 99.748 72.4395 100.615C73.0898 101.482 73.415 102.678 73.415 104.201V104.333ZM70.875 104.148C70.875 103.264 70.7168 102.581 70.4004 102.101C70.0898 101.62 69.6357 101.38 69.0381 101.38C68.2412 101.38 67.6934 101.685 67.3945 102.294V106.188C67.7051 106.814 68.2588 107.128 69.0557 107.128C70.2686 107.128 70.875 106.135 70.875 104.148ZM79.374 109.176C77.9795 109.176 76.8428 108.748 75.9639 107.893C75.0908 107.037 74.6543 105.897 74.6543 104.474V104.228C74.6543 103.272 74.8389 102.42 75.208 101.67C75.5771 100.914 76.0986 100.334 76.7725 99.9297C77.4521 99.5195 78.2256 99.3145 79.0928 99.3145C80.3936 99.3145 81.416 99.7246 82.1602 100.545C82.9102 101.365 83.2852 102.528 83.2852 104.034V105.071H77.2295C77.3115 105.692 77.5576 106.19 77.9678 106.565C78.3838 106.94 78.9082 107.128 79.541 107.128C80.5195 107.128 81.2842 106.773 81.835 106.064L83.083 107.462C82.7021 108.001 82.1865 108.423 81.5361 108.728C80.8857 109.026 80.165 109.176 79.374 109.176ZM79.084 101.371C78.5801 101.371 78.1699 101.541 77.8535 101.881C77.543 102.221 77.3438 102.707 77.2559 103.34H80.7891V103.138C80.7773 102.575 80.625 102.142 80.332 101.837C80.0391 101.526 79.623 101.371 79.084 101.371ZM87.0732 99.4902L87.1523 100.589C87.832 99.7393 88.7432 99.3145 89.8857 99.3145C90.8936 99.3145 91.6436 99.6104 92.1357 100.202C92.6279 100.794 92.8799 101.679 92.8916 102.856V109H90.3516V102.918C90.3516 102.379 90.2344 101.989 90 101.749C89.7656 101.503 89.376 101.38 88.8311 101.38C88.1162 101.38 87.5801 101.685 87.2227 102.294V109H84.6826V99.4902H87.0732ZM98.7803 107.128C99.249 107.128 99.6299 106.999 99.9229 106.741C100.216 106.483 100.368 106.141 100.38 105.713H102.762C102.756 106.357 102.58 106.949 102.234 107.488C101.889 108.021 101.414 108.438 100.811 108.736C100.213 109.029 99.5508 109.176 98.8242 109.176C97.4648 109.176 96.3926 108.745 95.6074 107.884C94.8223 107.017 94.4297 105.821 94.4297 104.298V104.131C94.4297 102.666 94.8193 101.497 95.5986 100.624C96.3779 99.751 97.4473 99.3145 98.8066 99.3145C99.9961 99.3145 100.948 99.6543 101.663 100.334C102.384 101.008 102.75 101.907 102.762 103.032H100.38C100.368 102.54 100.216 102.142 99.9229 101.837C99.6299 101.526 99.2432 101.371 98.7627 101.371C98.1709 101.371 97.7227 101.588 97.418 102.021C97.1191 102.449 96.9697 103.146 96.9697 104.113V104.377C96.9697 105.355 97.1191 106.059 97.418 106.486C97.7168 106.914 98.1709 107.128 98.7803 107.128ZM108.589 109.176C107.194 109.176 106.058 108.748 105.179 107.893C104.306 107.037 103.869 105.897 103.869 104.474V104.228C103.869 103.272 104.054 102.42 104.423 101.67C104.792 100.914 105.313 100.334 105.987 99.9297C106.667 99.5195 107.44 99.3145 108.308 99.3145C109.608 99.3145 110.631 99.7246 111.375 100.545C112.125 101.365 112.5 102.528 112.5 104.034V105.071H106.444C106.526 105.692 106.772 106.19 107.183 106.565C107.599 106.94 108.123 107.128 108.756 107.128C109.734 107.128 110.499 106.773 111.05 106.064L112.298 107.462C111.917 108.001 111.401 108.423 110.751 108.728C110.101 109.026 109.38 109.176 108.589 109.176ZM108.299 101.371C107.795 101.371 107.385 101.541 107.068 101.881C106.758 102.221 106.559 102.707 106.471 103.34H110.004V103.138C109.992 102.575 109.84 102.142 109.547 101.837C109.254 101.526 108.838 101.371 108.299 101.371ZM119.294 101.872C118.948 101.825 118.644 101.802 118.38 101.802C117.419 101.802 116.789 102.127 116.49 102.777V109H113.95V99.4902H116.35L116.42 100.624C116.93 99.751 117.636 99.3145 118.538 99.3145C118.819 99.3145 119.083 99.3525 119.329 99.4287L119.294 101.872Z" fill="white"/>
<rect x="138" y="92" width="24" height="2" rx="1" transform="rotate(90 138 92)" fill="#FA8E45"/>
<path d="M161 108.247L164.458 110.339C165.092 110.722 165.867 110.155 165.7 109.439L164.783 105.505L167.842 102.855C168.4 102.372 168.1 101.455 167.367 101.397L163.342 101.055L161.767 97.3385C161.483 96.6635 160.517 96.6635 160.233 97.3385L158.658 101.047L154.633 101.389C153.9 101.447 153.6 102.364 154.158 102.847L157.217 105.497L156.3 109.43C156.133 110.147 156.908 110.714 157.542 110.33L161 108.247Z" fill="white"/>
<path d="M185 108.247L188.458 110.339C189.092 110.722 189.867 110.155 189.7 109.439L188.783 105.505L191.842 102.855C192.4 102.372 192.1 101.455 191.367 101.397L187.342 101.055L185.767 97.3385C185.483 96.6635 184.517 96.6635 184.233 97.3385L182.658 101.047L178.633 101.389C177.9 101.447 177.6 102.364 178.158 102.847L181.217 105.497L180.3 109.43C180.133 110.147 180.908 110.714 181.542 110.33L185 108.247Z" fill="white"/>
<path d="M209 108.247L212.458 110.339C213.092 110.722 213.867 110.155 213.7 109.439L212.783 105.505L215.842 102.855C216.4 102.372 216.1 101.455 215.367 101.397L211.342 101.055L209.767 97.3385C209.483 96.6635 208.517 96.6635 208.233 97.3385L206.658 101.047L202.633 101.389C201.9 101.447 201.6 102.364 202.158 102.847L205.217 105.497L204.3 109.43C204.133 110.147 204.908 110.714 205.542 110.33L209 108.247Z" fill="white"/>
<path d="M233 108.247L236.458 110.339C237.092 110.722 237.867 110.155 237.7 109.439L236.783 105.505L239.842 102.855C240.4 102.372 240.1 101.455 239.367 101.397L235.342 101.055L233.767 97.3385C233.483 96.6635 232.517 96.6635 232.233 97.3385L230.658 101.047L226.633 101.389C225.9 101.447 225.6 102.364 226.158 102.847L229.217 105.497L228.3 109.43C228.133 110.147 228.908 110.714 229.542 110.33L233 108.247Z" fill="white"/>
<path fill-rule="evenodd" clip-rule="evenodd" d="M259.34 101.043L263.374 101.393C264.107 101.451 264.399 102.368 263.84 102.851L260.782 105.501L261.699 109.443C261.865 110.159 261.09 110.726 260.457 110.343L256.999 108.251L253.54 110.334C252.907 110.718 252.132 110.151 252.299 109.434L253.215 105.501L250.157 102.851C249.599 102.368 249.899 101.451 250.632 101.393L254.657 101.051L256.232 97.3344C256.515 96.6594 257.482 96.6594 257.765 97.3344L259.34 101.043ZM256.999 98.9427V106.693L260.14 108.593L259.307 105.026L262.074 102.626L258.424 102.309L256.999 98.9427Z" fill="white"/>
<path d="M290.438 109H283.745V107.858L287.061 104.242C287.539 103.709 287.879 103.265 288.079 102.909C288.284 102.549 288.387 102.189 288.387 101.829C288.387 101.355 288.252 100.972 287.983 100.681C287.719 100.389 287.361 100.243 286.91 100.243C286.372 100.243 285.955 100.407 285.659 100.735C285.363 101.063 285.215 101.512 285.215 102.082H283.554C283.554 101.476 283.69 100.931 283.964 100.448C284.242 99.9606 284.636 99.5824 285.146 99.3135C285.661 99.0446 286.254 98.9102 286.924 98.9102C287.89 98.9102 288.651 99.154 289.207 99.6416C289.768 100.125 290.048 100.795 290.048 101.651C290.048 102.148 289.907 102.67 289.624 103.217C289.346 103.759 288.888 104.377 288.25 105.069L285.816 107.674H290.438V109ZM294.983 105.247C294.983 104.108 295.248 103.194 295.776 102.506C296.305 101.813 297.014 101.467 297.902 101.467C298.686 101.467 299.32 101.74 299.803 102.287V98.5H301.464V109H299.96L299.878 108.234C299.381 108.836 298.718 109.137 297.889 109.137C297.023 109.137 296.321 108.788 295.783 108.091C295.25 107.394 294.983 106.446 294.983 105.247ZM296.645 105.391C296.645 106.143 296.788 106.73 297.075 107.154C297.367 107.574 297.779 107.783 298.312 107.783C298.992 107.783 299.488 107.48 299.803 106.874V103.716C299.497 103.123 299.005 102.827 298.326 102.827C297.788 102.827 297.374 103.041 297.082 103.47C296.79 103.894 296.645 104.534 296.645 105.391ZM307.616 109C307.543 108.859 307.479 108.629 307.425 108.31C306.896 108.861 306.249 109.137 305.483 109.137C304.741 109.137 304.134 108.925 303.665 108.501C303.196 108.077 302.961 107.553 302.961 106.929C302.961 106.14 303.253 105.536 303.836 105.117C304.424 104.693 305.262 104.481 306.352 104.481H307.37V103.996C307.37 103.613 307.263 103.308 307.049 103.08C306.835 102.848 306.509 102.731 306.071 102.731C305.693 102.731 305.383 102.827 305.142 103.019C304.9 103.205 304.779 103.445 304.779 103.736H303.118C303.118 103.331 303.253 102.952 303.521 102.602C303.79 102.246 304.155 101.968 304.615 101.768C305.08 101.567 305.597 101.467 306.167 101.467C307.033 101.467 307.723 101.686 308.238 102.123C308.753 102.556 309.018 103.167 309.031 103.955V107.291C309.031 107.956 309.125 108.487 309.312 108.884V109H307.616ZM305.791 107.804C306.119 107.804 306.427 107.724 306.714 107.564C307.006 107.405 307.224 107.191 307.37 106.922V105.527H306.475C305.859 105.527 305.397 105.634 305.087 105.849C304.777 106.063 304.622 106.366 304.622 106.758C304.622 107.077 304.727 107.332 304.937 107.523C305.151 107.71 305.436 107.804 305.791 107.804ZM313.249 106.621L314.753 101.604H316.523L313.584 110.121C313.133 111.365 312.367 111.987 311.287 111.987C311.046 111.987 310.779 111.946 310.487 111.864V110.579L310.802 110.6C311.221 110.6 311.535 110.522 311.745 110.367C311.959 110.217 312.128 109.962 312.251 109.602L312.49 108.966L309.893 101.604H311.684L313.249 106.621ZM321.63 106.99C321.63 106.694 321.507 106.468 321.261 106.313C321.019 106.159 320.616 106.022 320.051 105.903C319.486 105.785 319.014 105.634 318.636 105.452C317.806 105.051 317.392 104.47 317.392 103.709C317.392 103.071 317.66 102.538 318.198 102.109C318.736 101.681 319.42 101.467 320.249 101.467C321.133 101.467 321.846 101.686 322.389 102.123C322.936 102.561 323.209 103.128 323.209 103.825H321.548C321.548 103.506 321.429 103.242 321.192 103.032C320.955 102.818 320.641 102.711 320.249 102.711C319.884 102.711 319.586 102.795 319.354 102.964C319.126 103.132 319.012 103.358 319.012 103.641C319.012 103.896 319.119 104.094 319.333 104.235C319.547 104.377 319.98 104.52 320.632 104.666C321.284 104.807 321.794 104.978 322.163 105.179C322.537 105.375 322.812 105.612 322.99 105.89C323.173 106.168 323.264 106.505 323.264 106.901C323.264 107.567 322.988 108.107 322.437 108.521C321.885 108.932 321.163 109.137 320.27 109.137C319.663 109.137 319.123 109.027 318.649 108.809C318.175 108.59 317.806 108.289 317.542 107.906C317.278 107.523 317.146 107.111 317.146 106.669H318.759C318.782 107.061 318.93 107.364 319.203 107.578C319.477 107.788 319.839 107.893 320.29 107.893C320.728 107.893 321.06 107.811 321.288 107.646C321.516 107.478 321.63 107.259 321.63 106.99ZM334.693 105.377C334.693 106.525 334.436 107.439 333.921 108.118C333.41 108.797 332.706 109.137 331.809 109.137C330.943 109.137 330.268 108.825 329.785 108.2L329.703 109H328.199V98.5H329.86V102.314C330.339 101.749 330.984 101.467 331.795 101.467C332.697 101.467 333.406 101.802 333.921 102.472C334.436 103.142 334.693 104.078 334.693 105.281V105.377ZM333.032 105.233C333.032 104.431 332.891 103.83 332.608 103.429C332.326 103.028 331.916 102.827 331.378 102.827C330.658 102.827 330.152 103.142 329.86 103.771V106.819C330.157 107.462 330.667 107.783 331.392 107.783C331.911 107.783 332.312 107.59 332.595 107.202C332.877 106.815 333.023 106.229 333.032 105.445V105.233ZM339.349 109.137C338.296 109.137 337.441 108.806 336.785 108.146C336.133 107.48 335.808 106.596 335.808 105.493V105.288C335.808 104.55 335.949 103.891 336.231 103.312C336.519 102.729 336.92 102.276 337.435 101.952C337.95 101.629 338.524 101.467 339.157 101.467C340.164 101.467 340.941 101.788 341.488 102.431C342.04 103.073 342.315 103.982 342.315 105.158V105.828H337.482C337.533 106.439 337.735 106.922 338.091 107.277C338.451 107.633 338.902 107.811 339.444 107.811C340.205 107.811 340.825 107.503 341.304 106.888L342.199 107.742C341.903 108.184 341.507 108.528 341.01 108.774C340.518 109.016 339.964 109.137 339.349 109.137ZM339.15 102.8C338.695 102.8 338.326 102.959 338.043 103.278C337.765 103.597 337.587 104.042 337.51 104.611H340.675V104.488C340.638 103.932 340.49 103.513 340.23 103.23C339.971 102.943 339.611 102.8 339.15 102.8ZM344.195 109V102.834H343.067V101.604H344.195V100.927C344.195 100.106 344.423 99.473 344.879 99.0264C345.335 98.5798 345.973 98.3564 346.793 98.3564C347.085 98.3564 347.395 98.3975 347.723 98.4795L347.682 99.7783C347.499 99.7419 347.287 99.7236 347.046 99.7236C346.253 99.7236 345.856 100.132 345.856 100.947V101.604H347.36V102.834H345.856V109H344.195ZM348.263 105.233C348.263 104.509 348.406 103.857 348.693 103.278C348.98 102.695 349.384 102.248 349.903 101.938C350.423 101.624 351.02 101.467 351.694 101.467C352.692 101.467 353.501 101.788 354.121 102.431C354.745 103.073 355.083 103.925 355.133 104.987L355.14 105.377C355.14 106.106 354.998 106.758 354.716 107.332C354.438 107.906 354.037 108.351 353.513 108.665C352.993 108.979 352.392 109.137 351.708 109.137C350.664 109.137 349.828 108.79 349.199 108.098C348.575 107.4 348.263 106.473 348.263 105.315V105.233ZM349.924 105.377C349.924 106.138 350.081 106.735 350.396 107.168C350.71 107.596 351.147 107.811 351.708 107.811C352.269 107.811 352.704 107.592 353.014 107.154C353.328 106.717 353.485 106.076 353.485 105.233C353.485 104.486 353.324 103.894 353 103.456C352.681 103.019 352.246 102.8 351.694 102.8C351.152 102.8 350.721 103.016 350.402 103.449C350.083 103.878 349.924 104.52 349.924 105.377ZM360.417 103.121C360.198 103.085 359.973 103.066 359.74 103.066C358.979 103.066 358.466 103.358 358.202 103.941V109H356.541V101.604H358.127L358.168 102.431C358.569 101.788 359.125 101.467 359.836 101.467C360.073 101.467 360.269 101.499 360.424 101.562L360.417 103.121ZM364.587 109.137C363.534 109.137 362.68 108.806 362.023 108.146C361.372 107.48 361.046 106.596 361.046 105.493V105.288C361.046 104.55 361.187 103.891 361.47 103.312C361.757 102.729 362.158 102.276 362.673 101.952C363.188 101.629 363.762 101.467 364.396 101.467C365.403 101.467 366.18 101.788 366.727 102.431C367.278 103.073 367.554 103.982 367.554 105.158V105.828H362.721C362.771 106.439 362.974 106.922 363.329 107.277C363.689 107.633 364.14 107.811 364.683 107.811C365.444 107.811 366.063 107.503 366.542 106.888L367.438 107.742C367.141 108.184 366.745 108.528 366.248 108.774C365.756 109.016 365.202 109.137 364.587 109.137ZM364.389 102.8C363.933 102.8 363.564 102.959 363.281 103.278C363.003 103.597 362.826 104.042 362.748 104.611H365.913V104.488C365.877 103.932 365.729 103.513 365.469 103.23C365.209 102.943 364.849 102.8 364.389 102.8Z" fill="white"/>
<g clip-path="url(#clip0)">
<path d="M222 47.3711C221.759 47.6806 221.44 47.758 221.079 47.672C220.812 47.6118 220.545 47.5602 220.296 47.4571C218.884 46.8466 217.386 46.6403 215.879 46.7091C213.314 46.8295 210.749 46.9842 208.201 47.2335C205.549 47.4914 202.906 47.8611 200.264 48.2222C195.83 48.8326 191.44 49.6666 187.084 50.6724C181.351 51.9964 175.781 53.819 170.212 55.7104C161.922 58.5218 153.597 61.1955 145.299 63.981C141.485 65.262 137.689 66.5946 133.927 68.0218C130.553 69.3114 127.488 71.2028 124.484 73.1973C123.347 73.9539 122.202 74.6847 121.04 75.3896C120.627 75.639 120.162 75.8023 119.723 76C119.551 76 119.379 76 119.207 76C118.914 75.5874 118.905 75.2693 119.301 74.8996C119.758 74.4697 120.248 74.0657 120.765 73.7132C124.811 70.9448 128.951 68.3313 133.454 66.3281C136.725 64.8666 140.125 63.7403 143.525 62.6141C150.085 60.4304 156.628 58.1951 163.196 56.0285C169.557 53.9308 175.928 51.8331 182.332 49.8643C187.472 48.291 192.749 47.2077 198.086 46.5457C202.906 45.9525 207.744 45.4883 212.582 44.9982C213.805 44.8779 215.044 44.8693 216.275 44.7919C216.456 44.7833 216.637 44.7145 216.921 44.6543C216.757 44.3964 216.646 44.1729 216.482 43.9923C215.32 42.7028 214.184 41.396 212.97 40.158C211.558 38.7136 210.06 37.3552 208.622 35.9367C208.123 35.4466 207.633 35.3521 207.021 35.6874C206.445 36.0055 205.816 36.2376 205.248 36.5557C204.267 37.1145 203.251 37.1919 202.175 36.9168C201.297 36.6933 200.419 36.5041 199.541 36.2892C199.231 36.2118 198.981 36.2376 198.706 36.4267C195.555 38.5761 192.404 40.7168 189.245 42.8489C188.832 43.124 188.384 43.3647 187.936 43.5797C187.79 43.6485 187.497 43.6828 187.42 43.6055C187.317 43.4851 187.282 43.2186 187.342 43.0552C187.609 42.3761 187.85 41.6797 188.229 41.0607C189.865 38.3525 191.492 35.6358 193.205 32.9792C197.079 26.9697 200.754 20.8399 204.129 14.538C204.49 13.8675 204.8 13.1797 205.127 12.4919C205.214 12.3028 205.265 12.0964 205.334 11.8987C205.3 11.8729 205.257 11.8471 205.222 11.8127C204.99 12.0448 204.731 12.2512 204.525 12.5005C203.311 13.9706 202.071 15.4236 200.909 16.9281C196.898 22.1037 192.912 27.305 188.926 32.4978C187.119 34.8448 185.139 37.0285 182.944 39.0231C182.616 39.324 182.263 39.5991 181.902 39.8571C181.558 40.1064 181.196 40.0978 180.817 39.8828C179.974 39.41 179.776 39.4358 179.096 40.115C178.39 40.8285 177.735 41.5937 177.012 42.2901C176.616 42.677 176.151 42.9951 175.678 43.296C175.437 43.4593 175.136 43.5539 174.843 43.6141C174.447 43.7 174.154 43.4679 174.223 43.0724C174.301 42.6168 174.473 42.1697 174.662 41.7485C174.852 41.3358 175.136 40.9661 175.334 40.5534C175.411 40.3987 175.368 40.1838 175.385 39.9946C175.205 40.0204 174.998 39.986 174.86 40.072C174.326 40.3987 173.819 40.777 173.293 41.1209C172.321 41.7571 171.374 42.419 170.367 42.9865C169.885 43.2616 169.299 43.3991 168.74 43.4851C168.395 43.5367 167.991 43.4421 167.672 43.2788C167.181 43.038 166.751 43.0552 166.346 43.3647C165.752 43.8204 165.184 44.3018 164.616 44.7747C163.729 45.5055 162.869 46.2534 161.965 46.9584C161.491 47.3281 160.94 47.5172 160.312 47.4313C159.494 47.3195 159.038 46.8466 159.15 46.0299C159.236 45.4023 159.399 44.7575 159.649 44.1815C160.63 41.9032 161.999 39.8571 163.514 37.9055C165.365 35.5326 167.405 33.3403 169.816 31.5349C170.72 30.8643 171.718 30.3227 172.717 29.7896C173.242 29.5059 173.844 29.3942 174.473 29.5231C174.912 29.6091 175.136 29.8584 175.161 30.2797C175.282 32.0593 175.084 33.753 173.93 35.2403C173.018 36.4181 172.183 37.6476 171.339 38.877C171.09 39.2381 170.926 39.6593 170.763 40.072C170.711 40.2095 170.754 40.4503 170.849 40.562C170.909 40.6308 171.184 40.5878 171.305 40.5104C172.105 39.9344 172.923 39.367 173.672 38.7222C175.136 37.4584 176.556 36.143 178.002 34.862C178.459 34.4494 178.941 34.0625 179.423 33.6842C179.664 33.5037 179.956 33.3489 180.249 33.5638C180.559 33.7874 180.654 34.1227 180.55 34.4838C180.456 34.8104 180.318 35.1285 180.197 35.4552C180.137 35.6272 180.086 35.7905 180.034 35.9625C180.068 35.9883 180.094 36.0141 180.129 36.0399C180.327 35.8765 180.533 35.7132 180.723 35.5412C181.394 34.9136 182.048 34.2774 182.728 33.6584C182.995 33.4177 183.296 33.2114 183.606 33.048C184.088 32.7901 184.407 32.8847 184.717 33.3231C185.121 33.8905 185.328 33.9593 185.819 33.4435C186.731 32.4806 187.635 31.4919 188.453 30.443C192.749 24.958 197.001 19.4385 201.288 13.9534C202.304 12.6552 203.406 11.4258 204.482 10.1792C204.731 9.88692 205.041 9.64619 205.351 9.41407C205.79 9.07877 206.29 9.05298 206.763 9.32809C207.245 9.60321 207.254 10.1104 207.133 10.5575C206.918 11.3571 206.711 12.1738 206.333 12.9046C205.136 15.2172 203.905 17.5127 202.622 19.7824C199.627 25.0783 196.64 30.3828 193.291 35.4724C192.8 36.2118 192.413 37.0114 191.982 37.7851C191.888 37.9571 191.836 38.1462 191.716 38.4385C191.982 38.3525 192.172 38.3181 192.318 38.2322C193.962 37.2693 195.607 36.315 197.225 35.3177C197.965 34.862 198.353 34.1227 198.568 33.2887C198.852 32.1625 199.145 31.0448 199.437 29.9186C199.592 29.3254 199.894 28.9987 200.582 28.9213C201.047 28.8697 201.538 28.5344 201.899 28.1991C203.096 27.0987 204.49 26.4281 206.057 26.0756C206.47 25.981 206.866 26.0154 207.159 26.3679C207.452 26.729 207.417 27.1589 207.202 27.5028C206.849 28.0444 206.47 28.6204 205.98 29.0245C204.981 29.8498 203.888 30.486 202.554 30.7095C201.624 30.8643 200.97 31.5349 200.565 32.4032C200.505 32.5408 200.488 32.7127 200.496 32.8675C200.513 33.1684 200.686 33.3317 200.987 33.1942C201.262 33.0738 201.512 32.9104 201.77 32.7557C202.149 32.5236 202.51 32.2656 202.906 32.0593C203.036 31.9905 203.294 31.9819 203.371 32.0593C203.475 32.1625 203.526 32.3946 203.5 32.558C203.414 33.0566 203.104 33.4263 202.708 33.7358C202.416 33.9593 202.132 34.2172 201.917 34.5095C201.641 34.8964 201.796 35.2575 202.269 35.3263C202.631 35.3779 203.027 35.3951 203.371 35.2919C204.163 35.0512 204.947 34.7675 205.704 34.4408C206.264 34.2 206.574 33.7272 206.556 33.1082C206.488 30.8041 207.624 29.162 209.414 27.881C210.887 26.8236 212.427 25.8779 214.166 25.319C214.683 25.1557 215.26 25.0869 215.811 25.1041C216.585 25.1299 217.085 25.981 216.74 26.6688C216.516 27.1159 216.181 27.5457 215.811 27.8896C214.485 29.1104 212.918 29.8842 211.179 30.3227C210.585 30.4774 209.991 30.6494 209.406 30.8385C209.208 30.8987 209.036 31.0104 208.846 31.105C208.846 31.148 208.846 31.1824 208.846 31.2254C209.018 31.2942 209.191 31.3715 209.371 31.4403C209.828 31.6037 209.974 31.8014 209.759 32.2055C209.156 33.3747 209.526 34.3032 210.293 35.2489C212.815 38.3783 215.483 41.3702 218.453 44.0869C218.892 44.4824 219.417 44.8005 219.943 45.0928C220.769 45.5485 221.501 46.0987 221.983 46.924C222 47.0874 222 47.2249 222 47.3711ZM161.319 44.5168C161.328 45.153 161.552 45.3077 161.982 45.0326C162.628 44.6199 163.273 44.1815 163.867 43.6914C164.392 43.2616 164.771 42.6856 164.926 42.0064C165.141 41.0865 165.684 40.4245 166.433 39.8914C166.725 39.6851 167.026 39.496 167.302 39.2552C169.523 37.3037 171.537 35.1543 173.362 32.8245C173.534 32.6009 173.689 32.3516 173.819 32.1023C173.965 31.7928 173.827 31.5865 173.483 31.6037C173.311 31.6123 173.138 31.6466 172.984 31.7154C172.493 31.9561 172.002 32.1797 171.546 32.472C168.722 34.3032 166.389 36.6503 164.427 39.367C163.445 40.7168 162.585 42.1525 161.689 43.5711C161.491 43.8978 161.405 44.2933 161.319 44.5168Z" fill="white"/>
<path d="M190.493 0C191.104 0.378281 191.251 0.687783 190.906 1.31538C190.416 2.2181 189.882 3.11222 189.245 3.91176C187.136 6.56833 184.966 9.1905 182.823 11.8213C182.281 12.4833 181.764 13.1624 181.239 13.833C181.248 13.8846 181.265 13.9362 181.273 13.9878C182.117 14.1081 182.952 14.2715 183.804 14.3489C185.956 14.5552 188.066 14.9077 190.071 15.7502C190.924 16.1113 191.724 16.5498 192.344 17.2633C192.568 17.5213 192.869 17.7964 192.671 18.1661C192.482 18.5186 192.077 18.4498 191.776 18.381C191.233 18.2606 190.7 18.0887 190.183 17.8824C187.558 16.8335 184.846 16.1371 182.005 16.0425C181.532 16.0253 181.058 16.0511 180.585 16.0769C179.887 16.1113 179.259 16.3262 178.786 16.8593C177.219 18.6303 175.583 20.3412 174.103 22.181C167.156 30.8385 160.76 39.8914 154.708 49.1937C154.338 49.7697 154.011 50.3801 153.709 50.9991C153.451 51.5321 153.546 51.6697 154.105 51.8072C154.94 52.0222 155 52.1425 154.493 52.8475C152.582 55.4783 150.421 57.8855 148.053 60.1036C147.967 60.181 147.873 60.2412 147.787 60.3186C147.58 60.4905 147.373 60.4905 147.167 60.3272C146.969 60.1724 146.779 59.9919 146.909 59.7167C147.382 58.6765 147.812 57.6104 148.372 56.6131C151.557 50.9045 155.138 45.4367 158.874 40.0805C161.741 35.9796 164.719 31.9733 167.646 27.9154C167.965 27.4769 168.257 27.0127 168.55 26.557C168.636 26.4195 168.688 26.2561 168.757 26.11C168.731 26.0756 168.697 26.0412 168.671 26.0154C168.455 26.1529 168.223 26.2733 168.034 26.4367C166.725 27.5887 165.374 28.7149 164.117 29.9272C160.174 33.7357 156.576 37.871 152.943 41.9633C149.655 45.6602 146.366 49.3484 143.052 53.0195C142.458 53.6729 141.761 54.2403 141.072 54.7819C140.693 55.0828 140.194 55.2891 139.712 54.9882C139.238 54.6873 139.299 54.1629 139.368 53.6986C139.531 52.5982 139.987 51.6181 140.745 50.7928C142.174 49.2281 143.594 47.6462 145.075 46.1244C148.51 42.5995 151.988 39.1262 155.414 35.6014C156.559 34.4235 157.635 33.1683 158.694 31.9045C159.262 31.2339 159.15 30.933 158.28 30.8471C156.886 30.7095 155.474 30.6751 154.071 30.6235C152.151 30.5462 150.231 30.529 148.312 30.4172C147.666 30.3828 147.012 30.2109 146.392 29.9959C145.686 29.7552 145.548 29.2652 146.03 28.6977C146.47 28.1819 146.977 27.7005 147.528 27.2964C150.076 25.4308 152.814 23.8661 155.62 22.4131C160.441 19.9285 165.391 17.7362 170.547 16.0597C172.2 15.5181 173.905 15.0195 175.618 14.7959C177.202 14.5982 178.407 13.919 179.44 12.8186C182.728 9.29367 185.862 5.64842 188.565 1.64208C188.987 0.997285 189.46 0.395475 190.149 0C190.261 0 190.373 0 190.493 0ZM149.259 28.5258C149.267 28.586 149.284 28.6462 149.293 28.7063C150.033 28.7665 150.765 28.8611 151.505 28.8869C153.58 28.9643 155.663 28.9814 157.738 29.0846C158.556 29.1276 159.408 29.2222 160.166 29.5145C160.854 29.781 161.397 29.8928 161.948 29.3339C161.991 29.291 162.034 29.2652 162.085 29.2222C166.329 25.7575 170.298 21.9833 174.24 18.1833C174.438 17.9941 174.542 17.7104 174.688 17.4697C174.395 17.4181 174.077 17.2719 173.801 17.3235C172.889 17.4869 171.968 17.676 171.081 17.9425C163.609 20.2208 156.757 23.7887 150.145 27.8724C149.827 28.0529 149.551 28.3023 149.259 28.5258Z" fill="white"/>
</g>
<defs>
<clipPath id="clip0">
<rect width="103" height="76" fill="white" transform="translate(119)"/>
</clipPath>
</defs>
</svg>
