<svg width="30" height="30" viewBox="0 0 30 30" fill="none" xmlns="http://www.w3.org/2000/svg">
<path d="M15 30C23.2843 30 30 23.2843 30 15C30 6.71573 23.2843 0 15 0C6.71573 0 0 6.71573 0 15C0 23.2843 6.71573 30 15 30Z" fill="white"/>
<path d="M4.63843 20.4988C4.63843 20.3865 4.63843 20.2743 4.63843 20.1621C4.78805 20.0125 4.90027 19.8628 5.12471 19.8254C6.84541 19.4888 7.9676 18.404 8.82795 16.9825C9.53868 15.7855 9.42646 15.5237 8.11723 15.0374C8.04242 15 7.9676 15 7.89279 14.9626C7.59354 14.8504 7.33169 14.7008 7.06985 14.5137C6.47135 13.99 6.808 13.2419 7.51873 13.0923C8.04242 12.9801 8.4913 13.3167 8.97758 13.3541C9.31424 13.3915 9.42646 13.2793 9.38905 12.9426C9.27683 12.0449 9.27683 11.1097 9.31424 10.1746C9.38905 8.41646 10.2494 7.06983 11.7083 6.20948C13.8404 4.93766 16.0848 4.93766 18.217 6.17207C19.5636 6.95761 20.424 8.15462 20.611 9.7631C20.7232 10.8105 20.6858 11.8579 20.611 12.8678C20.5736 13.3167 20.6858 13.3915 21.0973 13.2793C21.6584 13.1671 22.1073 12.8678 22.7058 13.1297C23.005 13.2793 23.2669 13.5411 23.2669 13.8778C23.2669 14.1022 23.1172 14.3267 22.9676 14.4763C22.7058 14.7008 22.3691 14.8504 22.0324 14.9626C21.7706 15.0748 21.5088 15.1496 21.2843 15.2618C20.798 15.4863 20.6484 15.8229 20.8728 16.3092C21.6958 18.0299 22.8928 19.3392 24.8379 19.788C25.0624 19.8254 25.2494 19.9377 25.399 20.1247C25.399 20.2369 25.399 20.3491 25.399 20.4614C25.212 20.8354 24.8753 21.0599 24.5013 21.1721C24.1272 21.3217 23.7531 21.4713 23.3417 21.5087C22.7806 21.5461 22.4813 21.808 22.4065 22.3691C22.3317 22.9302 22.1447 23.005 21.5836 22.9676C21.4339 22.9676 21.3217 22.9302 21.1721 22.8928C20.0499 22.7057 19.0025 22.818 18.1048 23.5287C17.9177 23.6783 17.7307 23.7905 17.5437 23.9027C15.9726 24.9127 14.4015 25.0249 12.7556 24.0898C12.3068 23.8279 11.8953 23.5287 11.4464 23.2668C11.0723 23.0424 10.6983 22.8928 10.2868 22.8554C9.61349 22.7431 8.97758 22.8928 8.30426 22.9676C7.9676 23.005 7.63095 22.8928 7.63095 22.5561C7.59354 21.7332 7.06985 21.5087 6.35913 21.4339C6.02247 21.3965 5.68581 21.2469 5.38656 21.1347C5.12471 21.0224 4.82546 20.8354 4.63843 20.4988Z" fill="black"/>
</svg>
