<svg width="30" height="30" viewBox="0 0 30 30" fill="none" xmlns="http://www.w3.org/2000/svg">
<path d="M15 30C23.2843 30 30 23.2843 30 15C30 6.71573 23.2843 0 15 0C6.71573 0 0 6.71573 0 15C0 23.2843 6.71573 30 15 30Z" fill="white"/>
<path d="M24.1271 9.20203C23.5286 9.46387 22.8927 9.6135 22.2568 9.72572C22.5561 9.68831 23.0049 9.12721 23.192 8.90278C23.4538 8.56612 23.6783 8.19205 23.8279 7.78058C23.8279 7.74317 23.8653 7.70577 23.8279 7.66836C23.7905 7.66836 23.7531 7.66836 23.7157 7.66836C23.0049 8.04243 22.2942 8.30427 21.5087 8.52871C21.4339 8.52871 21.3965 8.52871 21.359 8.4913C21.2842 8.41649 21.2468 8.34168 21.172 8.30427C20.8354 8.04243 20.4987 7.81799 20.0872 7.63095C19.5635 7.40652 19.0024 7.3317 18.4413 7.36911C17.8802 7.40652 17.3566 7.55614 16.8703 7.81799C16.384 8.07983 15.9351 8.41649 15.5984 8.86537C15.2244 9.31425 14.9625 9.83794 14.8503 10.3616C14.7381 10.8853 14.7381 11.409 14.8129 11.9701C14.8129 12.0449 14.8129 12.0823 14.7381 12.0449C11.7082 11.596 9.16453 10.5113 7.10718 8.15465C7.03236 8.04243 6.95755 8.04243 6.88274 8.15465C5.98498 9.50128 6.43386 11.6709 7.55605 12.7182C7.70568 12.8679 7.85531 13.0175 8.04234 13.1297C7.96753 13.1297 7.2194 13.0549 6.58349 12.7182C6.50867 12.6434 6.43386 12.6808 6.43386 12.7931C6.43386 12.9427 6.43386 13.0549 6.47127 13.2419C6.6583 14.5886 7.59346 15.8604 8.86528 16.3467C9.01491 16.4215 9.20194 16.4589 9.35157 16.4963C9.05231 16.5711 8.75306 16.6085 7.89271 16.5337C7.78049 16.4963 7.74309 16.5711 7.78049 16.6833C8.4164 18.404 9.80044 18.9277 10.8104 19.227C10.96 19.2644 11.0723 19.2644 11.2219 19.3018C11.2219 19.3018 11.2219 19.3018 11.1845 19.3392C10.8478 19.8629 9.65082 20.2369 9.12713 20.424C8.11715 20.7606 7.03236 20.9477 5.98498 20.8354C5.79795 20.798 5.79795 20.798 5.72314 20.8354C5.68573 20.8729 5.72314 20.9103 5.76054 20.9477C5.98498 21.0973 6.20942 21.2095 6.39645 21.3217C7.06977 21.6584 7.78049 21.9576 8.49122 22.1447C12.2693 23.1921 16.5336 22.4065 19.3391 19.601C21.5835 17.394 22.3316 14.3267 22.3316 11.2968C22.3316 11.1846 22.4812 11.1098 22.5561 11.0349C23.1172 10.5861 23.6034 10.0624 24.0149 9.50128C24.1271 9.38906 24.0897 9.23943 24.0897 9.20203C24.2019 9.16462 24.2019 9.16462 24.1271 9.20203Z" fill="black"/>
<path fill-rule="evenodd" clip-rule="evenodd" d="M11.8204 22.5561C11.8204 22.5186 12.1579 22.5561 11.8204 22.5561C11.8204 22.5186 11.8579 22.5561 11.8204 22.5561Z" fill="black"/>
</svg>
