<svg width="35" height="35" viewBox="0 0 35 35" fill="#E07730" xmlns="http://www.w3.org/2000/svg">
<path d="M17.5 35C27.165 35 35 27.165 35 17.5C35 7.83502 27.165 0 17.5 0C7.83501 0 0 7.83502 0 17.5C0 27.165 7.83501 35 17.5 35Z" fill="white"/>
<path d="M28.5849 14.7071C28.5849 12.0886 26.4464 9.9502 23.828 9.9502H11.5213C8.90281 9.9502 6.7644 12.0886 6.7644 14.7071V20.4677C6.7644 23.0861 8.90281 25.2245 11.5213 25.2245H23.828C26.4464 25.2245 28.5849 23.0861 28.5849 20.4677V14.7071ZM20.7731 17.8928L15.8417 20.5986C15.6235 20.7295 15.4489 20.5549 15.4489 20.3367V14.7507C15.4489 14.4888 15.6671 14.3579 15.8417 14.4888L20.7731 17.3255C21.035 17.4564 20.9913 17.7619 20.7731 17.8928Z" fill="#4E63BD"/>
</svg>
