<svg width="227" height="52" viewBox="0 0 227 52" fill="none" xmlns="http://www.w3.org/2000/svg">
<path d="M137.07 32H127.08V19.4H137.07V21.92H130.32V24.35H135.63V26.87H130.32V29.48H137.07V32ZM137.966 26.96V24.44H145.346V26.96H137.966ZM150.201 29.48H156.771V32H146.961V19.4H150.201V29.48ZM161.545 24.53C161.065 24.53 160.825 24.77 160.825 25.25V26.24H163.885V25.25C163.885 24.77 163.645 24.53 163.165 24.53H161.545ZM166.675 31.82C164.359 32.06 162.259 32.18 160.375 32.18C159.559 32.18 158.905 31.934 158.413 31.442C157.921 30.95 157.675 30.296 157.675 29.48V25.16C157.675 24.26 157.927 23.558 158.431 23.054C158.947 22.538 159.655 22.28 160.555 22.28H164.155C165.055 22.28 165.757 22.538 166.261 23.054C166.777 23.558 167.035 24.26 167.035 25.16V28.49H160.825V29.21C160.825 29.39 160.885 29.54 161.005 29.66C161.125 29.78 161.275 29.84 161.455 29.84C162.643 29.84 164.383 29.75 166.675 29.57V31.82ZM172.428 29.66C173.064 29.66 173.784 29.54 174.588 29.3V28.22H171.978C171.798 28.22 171.648 28.28 171.528 28.4C171.408 28.52 171.348 28.67 171.348 28.85V29.03C171.348 29.21 171.408 29.36 171.528 29.48C171.648 29.6 171.798 29.66 171.978 29.66H172.428ZM169.098 22.64C171.294 22.4 173.274 22.28 175.038 22.28C175.854 22.28 176.508 22.526 177 23.018C177.492 23.51 177.738 24.164 177.738 24.98V32H174.948L174.768 31.1C174.204 31.472 173.622 31.748 173.022 31.928C172.434 32.096 171.936 32.18 171.528 32.18H170.898C170.082 32.18 169.428 31.934 168.936 31.442C168.444 30.95 168.198 30.296 168.198 29.48V28.67C168.198 27.854 168.444 27.2 168.936 26.708C169.428 26.216 170.082 25.97 170.898 25.97H174.588V25.25C174.588 25.07 174.528 24.92 174.408 24.8C174.288 24.68 174.138 24.62 173.958 24.62C173.178 24.62 172.314 24.656 171.366 24.728C170.43 24.8 169.674 24.854 169.098 24.89V22.64ZM184.843 25.07C184.087 25.07 183.307 25.25 182.503 25.61V32H179.353V22.46H182.143L182.323 23.63C183.355 22.73 184.435 22.28 185.563 22.28H186.373V25.07H184.843ZM192.942 24.89C192.306 24.89 191.586 25.01 190.782 25.25V32H187.632V22.46H190.422L190.602 23.36C191.166 22.988 191.742 22.718 192.33 22.55C192.93 22.37 193.434 22.28 193.842 22.28H194.652C195.468 22.28 196.122 22.526 196.614 23.018C197.106 23.51 197.352 24.164 197.352 24.98V32H194.202V25.52C194.202 25.34 194.142 25.19 194.022 25.07C193.902 24.95 193.752 24.89 193.572 24.89H192.942ZM202.93 22.82V32H199.78V25.25H198.43V22.82H202.93ZM199.78 19.22H202.93V21.74H199.78V19.22ZM210.046 24.89C209.41 24.89 208.69 25.01 207.886 25.25V32H204.736V22.46H207.526L207.706 23.36C208.27 22.988 208.846 22.718 209.434 22.55C210.034 22.37 210.538 22.28 210.946 22.28H211.756C212.572 22.28 213.226 22.526 213.718 23.018C214.21 23.51 214.456 24.164 214.456 24.98V32H211.306V25.52C211.306 25.34 211.246 25.19 211.126 25.07C211.006 24.95 210.856 24.89 210.676 24.89H210.046ZM222.284 31.28C221.12 31.52 220.1 31.64 219.224 31.64H218.594C217.778 31.64 217.124 31.394 216.632 30.902C216.14 30.41 215.894 29.756 215.894 28.94V25.34C215.894 24.44 216.146 23.738 216.65 23.234C217.166 22.718 217.874 22.46 218.774 22.46H225.434V32.54C225.434 33.356 225.188 34.01 224.696 34.502C224.204 34.994 223.55 35.24 222.734 35.24C220.85 35.24 218.75 35.12 216.434 34.88V32.54C218.726 32.72 220.466 32.81 221.654 32.81C221.834 32.81 221.984 32.75 222.104 32.63C222.224 32.51 222.284 32.36 222.284 32.18V31.28ZM220.124 29.21C220.88 29.21 221.6 29.15 222.284 29.03V24.89H219.764C219.284 24.89 219.044 25.13 219.044 25.61V28.58C219.044 28.76 219.104 28.91 219.224 29.03C219.344 29.15 219.494 29.21 219.674 29.21H220.124Z" fill="#FA8E45"/>
<path d="M77.33 32H73.82L78.59 19.4H82.19L86.96 32H83.45L82.64 29.75H78.14L77.33 32ZM78.95 27.41H81.83L80.39 23.18L78.95 27.41ZM93.2558 19.4H100.456C101.632 19.4 102.496 19.67 103.048 20.21C103.6 20.738 103.876 21.548 103.876 22.64C103.876 23.36 103.72 23.948 103.408 24.404C103.096 24.848 102.712 25.16 102.256 25.34C103.228 25.604 103.888 26.252 104.236 27.284C104.356 27.656 104.416 28.088 104.416 28.58C104.416 29.756 104.14 30.62 103.588 31.172C103.036 31.724 102.172 32 100.996 32H93.2558V19.4ZM101.176 28.04C101.176 27.32 100.816 26.96 100.096 26.96H96.4958V29.48H100.096C100.816 29.48 101.176 29.12 101.176 28.4V28.04ZM100.636 23C100.636 22.28 100.276 21.92 99.5558 21.92H96.4958V24.44H99.5558C100.276 24.44 100.636 24.08 100.636 23.36V23ZM121.152 31.82C118.476 32.06 116.256 32.18 114.492 32.18C113.316 32.18 112.452 31.904 111.9 31.352C111.348 30.8 111.072 29.936 111.072 28.76V23C111.072 21.74 111.354 20.828 111.918 20.264C112.494 19.688 113.412 19.4 114.672 19.4H121.152V21.92H115.392C114.672 21.92 114.312 22.28 114.312 23V28.76C114.312 29.036 114.39 29.258 114.546 29.426C114.714 29.582 114.924 29.66 115.176 29.66C115.428 29.66 115.704 29.66 116.004 29.66C116.304 29.648 116.616 29.636 116.94 29.624C117.264 29.612 117.588 29.6 117.912 29.588C118.248 29.576 118.674 29.552 119.19 29.516C119.718 29.48 120.372 29.438 121.152 29.39V31.82Z" fill="#4E63BD"/>
<path d="M28.8612 46.4398C23.3312 46.4398 18.1314 44.2825 14.2194 40.3786C10.3074 36.4666 8.1582 31.2667 8.1582 25.7368C8.1582 20.2069 10.3154 15.007 14.2194 11.095C18.1314 7.18305 23.3312 5.03387 28.8612 5.03387C34.3911 5.03387 39.5909 7.1911 43.5029 11.095C47.4149 14.999 49.5641 20.2069 49.5641 25.7368C49.5641 31.2667 47.4149 36.4666 43.5029 40.3786C39.5909 44.2906 34.3911 46.4398 28.8612 46.4398ZM28.8612 5.83881C23.5486 5.83881 18.5499 7.90749 14.7909 11.6665C11.0318 15.4256 8.96314 20.4242 8.96314 25.7368C8.96314 31.0494 11.0318 36.048 14.7909 39.8071C18.5499 43.5661 23.5486 45.6348 28.8612 45.6348C34.1737 45.6348 39.1724 43.5661 42.9314 39.8071C46.6905 36.048 48.7592 31.0494 48.7592 25.7368C48.7592 20.4242 46.6905 15.4256 42.9314 11.6665C39.1724 7.90749 34.1737 5.83881 28.8612 5.83881Z" fill="#4E63BD"/>
<path d="M18.1551 49.1282C14.9998 47.6793 12.2147 45.6589 9.88844 43.1234C7.64267 40.6683 5.91206 37.8349 4.7449 34.7037C3.57775 31.5725 3.03844 28.2965 3.13503 24.9721C3.23162 21.5269 4.02046 18.1784 5.4613 15.0231C6.90213 11.8677 8.93057 9.09068 11.4742 6.76442C13.9292 4.51865 16.7626 2.78804 19.8938 1.62088C23.025 0.453722 26.293 -0.0855846 29.6174 0.0110077C33.0625 0.1076 36.4111 0.896437 39.5664 2.33727C42.7218 3.77811 45.5069 5.80654 47.8331 8.34209C50.0789 10.7971 51.8095 13.6305 52.9767 16.7617C54.1438 19.8929 54.6831 23.169 54.5865 26.4934C54.4899 29.9385 53.7011 33.2871 52.2603 36.4424C50.8114 39.5977 48.791 42.3828 46.2554 44.7091C43.8004 46.9549 40.967 48.6855 37.8358 49.8526C34.7046 51.0198 31.4285 51.5591 28.1041 51.4625C24.659 51.3579 21.3105 50.5771 18.1551 49.1282ZM38.0048 5.7502C32.6681 3.3032 26.6955 3.08586 21.1978 5.13845C15.7001 7.19103 11.3212 11.256 8.87422 16.5927C6.42722 21.9294 6.20989 27.902 8.26247 33.3997C10.3151 38.8975 14.3719 43.2763 19.7167 45.7233C25.0615 48.1703 31.0261 48.3876 36.5238 46.3351C42.0295 44.2905 46.4003 40.2175 48.8473 34.8808C51.2943 29.5441 51.5117 23.5715 49.4591 18.0738C47.4145 12.568 43.3416 8.1972 38.0048 5.7502Z" fill="#4E63BD"/>
<path d="M47.3984 45.3772L1.87931 24.5374C0.261389 23.7968 -0.446955 21.8891 0.293586 20.2712L6.04888 7.68201C6.78942 6.06409 8.69712 5.35575 10.315 6.09629L55.8422 26.9361C57.4601 27.6766 58.1685 29.5843 57.4279 31.2022L51.6646 43.7914C50.9321 45.4093 49.0164 46.1177 47.3984 45.3772Z" fill="#4E63BD"/>
<path d="M20.3442 18.7498C20.642 18.1059 20.8191 17.5907 20.4971 16.8099C20.2315 16.1579 19.829 15.8682 19.2736 15.6106L15.3697 13.8236C15.3455 13.8156 15.3214 13.8075 15.2892 13.8075C15.2167 13.8075 15.1523 13.8478 15.1201 13.9202L11.2082 22.4767C11.0955 22.7182 11.0713 22.9274 11.1357 23.1126C11.2001 23.3058 11.3611 23.4668 11.6187 23.5875C11.7716 23.6599 11.9084 23.6921 12.0453 23.6921C12.3431 23.6921 12.5685 23.5151 12.7295 23.177L13.961 20.4804L16.3597 21.5832C16.7461 21.7603 17.1325 21.9213 17.5591 21.9213C17.8167 21.9213 18.0743 21.8649 18.3479 21.7442C19.0804 21.4303 19.3461 20.9554 19.6117 20.3678L20.3442 18.7498ZM17.5993 20.2229C17.4867 20.2229 17.3176 20.1746 17.0922 20.0699L14.6533 18.9511L16.0217 15.9567L18.4606 17.0756C19.0482 17.3412 19.0965 17.47 18.8228 18.0576L18.0662 19.6997C17.873 20.1343 17.7523 20.2229 17.5993 20.2229Z" fill="white"/>
<path d="M26.7349 19.0233C26.6222 18.975 26.5096 18.9428 26.4049 18.9428C26.0829 18.9428 25.8495 19.1601 25.6402 19.3935L19.6998 26.2918C19.5791 26.4367 19.5308 26.6219 19.5791 26.8311C19.6354 27.0887 19.8205 27.3222 20.062 27.4349C20.1747 27.4831 20.2874 27.5073 20.4001 27.5073C20.6738 27.5073 20.9555 27.3544 21.1809 27.0887L22.179 25.986L24.4248 27.0163L24.2316 28.4813C24.1591 28.9964 24.3282 29.3828 24.7065 29.5599C24.8111 29.6082 24.9319 29.6323 25.0526 29.6323C25.439 29.6323 25.7529 29.3989 25.8012 29.085L27.1776 20.0938C27.2179 19.8846 27.3145 19.2889 26.7349 19.0233ZM25.109 22.565L24.6904 25.3098L23.2979 24.6739L25.109 22.565Z" fill="white"/>
<path d="M37.497 25.9779C37.6902 25.5513 37.6741 24.9476 37.4568 24.4486C37.2475 23.9978 36.9174 23.6839 36.3781 23.4343L33.8828 22.2994C33.5689 22.1545 33.2952 22.0338 32.9411 22.0338C32.8606 22.0338 32.7801 22.0418 32.6996 22.0498C32.112 22.1384 31.6612 22.4765 31.4197 22.9997C31.1944 23.4826 31.2587 23.8449 31.3553 24.2634L33.0135 31.2825C33.0216 31.3066 33.0296 31.3469 33.0377 31.3871C33.0457 31.4274 33.0699 31.5078 33.0779 31.5642C33.0296 31.5481 32.9652 31.5159 32.933 31.4998C32.9169 31.4917 32.9008 31.4837 32.8847 31.4756L30.3331 30.3085C30.2284 30.2602 30.0996 30.1958 30.0594 30.1314C30.0513 30.1153 30.0191 30.0751 30.0916 29.9221C30.2928 29.4794 30.1318 29.0125 29.7213 28.8194C29.6006 28.763 29.4798 28.7389 29.351 28.7389C29.0049 28.7389 28.691 28.9642 28.522 29.3345C28.3207 29.7772 28.3449 30.3648 28.5783 30.8398C28.7956 31.2825 29.1337 31.5964 29.6811 31.8459L32.2649 33.0292C32.5708 33.166 32.8686 33.2385 33.1664 33.2385C33.8104 33.2385 34.3256 32.9004 34.6073 32.2886C34.8166 31.8298 34.7522 31.4193 34.6556 31.0007L32.9894 23.9736C32.9894 23.9495 32.9813 23.9253 32.9733 23.8932C32.9652 23.8449 32.9411 23.7563 32.9411 23.708C32.9894 23.7161 33.0618 23.7563 33.1101 23.7805C33.1342 23.7885 33.1503 23.7966 33.1664 23.8046L35.6537 24.9476C35.7664 25.004 35.9113 25.0684 35.9515 25.1489C35.9596 25.165 35.9998 25.2293 35.9113 25.4145C35.71 25.8491 35.8791 26.2758 36.3137 26.477C36.4425 26.5333 36.5713 26.5655 36.6921 26.5655C37.0382 26.5575 37.328 26.3482 37.497 25.9779Z" fill="white"/>
<path d="M45.9167 28.3202C45.7074 27.8694 45.3774 27.5555 44.8381 27.306L42.3508 26.163C42.0369 26.0181 41.7632 25.8973 41.4091 25.8973C41.3286 25.8973 41.2561 25.9054 41.1676 25.9134C40.58 26.002 40.1292 26.3401 39.8877 26.8633C39.6624 27.3462 39.7268 27.7084 39.8233 28.127L41.4815 35.1461C41.4896 35.1702 41.4976 35.2104 41.5057 35.2507C41.5137 35.2909 41.5379 35.3714 41.5459 35.4278C41.4976 35.4117 41.4332 35.3795 41.401 35.3634C41.3849 35.3553 41.3688 35.3473 41.3527 35.3392L38.793 34.1801C38.463 34.0272 38.4711 33.9789 38.5516 33.7938C38.6401 33.5925 38.6642 33.3752 38.6079 33.174C38.5435 32.9566 38.3906 32.7876 38.1813 32.691C38.0605 32.6347 37.9398 32.6105 37.811 32.6105C37.4649 32.6105 37.151 32.8359 36.9819 33.2062C36.7807 33.6489 36.8048 34.2365 37.0383 34.7114C37.2556 35.1541 37.5937 35.468 38.141 35.7176L40.7249 36.9008C41.0308 37.0376 41.3286 37.1101 41.6264 37.1101C42.2704 37.1101 42.7855 36.772 43.0672 36.1603C43.2765 35.7015 43.2121 35.2909 43.1155 34.8724L41.4493 27.8453C41.4493 27.8211 41.4413 27.797 41.4332 27.7648C41.4252 27.7245 41.401 27.628 41.401 27.5797C41.4493 27.5877 41.5218 27.6279 41.5701 27.6521C41.5942 27.6601 41.6103 27.6682 41.6264 27.6762L44.1137 28.8193C44.2263 28.8756 44.3712 28.94 44.4115 29.0205C44.4195 29.0366 44.4598 29.101 44.3712 29.2861C44.17 29.7208 44.339 30.1474 44.7737 30.3486C44.9025 30.405 45.0313 30.4372 45.152 30.4372C45.482 30.4372 45.7718 30.2279 45.9409 29.8496C46.1501 29.423 46.134 28.8193 45.9167 28.3202Z" fill="white"/>
</svg>
